<mxfile host="app.diagrams.net" modified="2021-08-04T14:40:43.583Z" agent="5.0 (Windows NT 10.0; Win64; x64) AppleWebKit/537.36 (KHTML, like Gecko) Chrome/92.0.4515.107 Safari/537.36" etag="iC0Uz86PGsIJQ5ErYink" version="14.8.4" type="github" pages="2">
  <diagram id="ZPtapOEbhOaZBqtqhNbG" name="Page-1">
    <mxGraphModel dx="3045" dy="861" grid="1" gridSize="10" guides="1" tooltips="1" connect="1" arrows="1" fold="1" page="1" pageScale="1" pageWidth="827" pageHeight="1169" math="0" shadow="0">
      <root>
        <mxCell id="0" />
        <mxCell id="1" parent="0" />
        <mxCell id="BO4SJFOB6I6w-8m4gbbk-2" value="1" style="whiteSpace=wrap;html=1;aspect=fixed;" vertex="1" parent="1">
          <mxGeometry x="400" y="40" width="40" height="40" as="geometry" />
        </mxCell>
        <mxCell id="BO4SJFOB6I6w-8m4gbbk-3" value="2" style="whiteSpace=wrap;html=1;aspect=fixed;" vertex="1" parent="1">
          <mxGeometry x="400" y="120" width="40" height="40" as="geometry" />
        </mxCell>
        <mxCell id="BO4SJFOB6I6w-8m4gbbk-4" value="4" style="whiteSpace=wrap;html=1;aspect=fixed;" vertex="1" parent="1">
          <mxGeometry x="400" y="200" width="40" height="40" as="geometry" />
        </mxCell>
        <mxCell id="BO4SJFOB6I6w-8m4gbbk-5" value="" style="endArrow=classic;html=1;entryX=1;entryY=0.5;entryDx=0;entryDy=0;exitX=1;exitY=0.5;exitDx=0;exitDy=0;" edge="1" parent="1" source="BO4SJFOB6I6w-8m4gbbk-2" target="BO4SJFOB6I6w-8m4gbbk-4">
          <mxGeometry width="50" height="50" relative="1" as="geometry">
            <mxPoint x="570" y="160" as="sourcePoint" />
            <mxPoint x="440" y="150" as="targetPoint" />
            <Array as="points">
              <mxPoint x="480" y="60" />
              <mxPoint x="480" y="220" />
            </Array>
          </mxGeometry>
        </mxCell>
        <mxCell id="BO4SJFOB6I6w-8m4gbbk-6" value="" style="endArrow=classic;html=1;entryX=0.5;entryY=1;entryDx=0;entryDy=0;exitX=0.5;exitY=0;exitDx=0;exitDy=0;" edge="1" parent="1" source="BO4SJFOB6I6w-8m4gbbk-4" target="BO4SJFOB6I6w-8m4gbbk-3">
          <mxGeometry width="50" height="50" relative="1" as="geometry">
            <mxPoint x="390" y="200" as="sourcePoint" />
            <mxPoint x="440" y="150" as="targetPoint" />
          </mxGeometry>
        </mxCell>
        <mxCell id="BO4SJFOB6I6w-8m4gbbk-7" value="" style="endArrow=classic;html=1;entryX=0.5;entryY=1;entryDx=0;entryDy=0;exitX=0.5;exitY=0;exitDx=0;exitDy=0;" edge="1" parent="1" source="BO4SJFOB6I6w-8m4gbbk-3" target="BO4SJFOB6I6w-8m4gbbk-2">
          <mxGeometry width="50" height="50" relative="1" as="geometry">
            <mxPoint x="390" y="200" as="sourcePoint" />
            <mxPoint x="440" y="150" as="targetPoint" />
          </mxGeometry>
        </mxCell>
        <mxCell id="BO4SJFOB6I6w-8m4gbbk-9" value="8" style="whiteSpace=wrap;html=1;aspect=fixed;" vertex="1" parent="1">
          <mxGeometry x="400" y="280" width="40" height="40" as="geometry" />
        </mxCell>
        <mxCell id="BO4SJFOB6I6w-8m4gbbk-10" value="16" style="whiteSpace=wrap;html=1;aspect=fixed;" vertex="1" parent="1">
          <mxGeometry x="400" y="360" width="40" height="40" as="geometry" />
        </mxCell>
        <mxCell id="BO4SJFOB6I6w-8m4gbbk-11" value="5" style="whiteSpace=wrap;html=1;aspect=fixed;" vertex="1" parent="1">
          <mxGeometry x="320" y="440" width="40" height="40" as="geometry" />
        </mxCell>
        <mxCell id="BO4SJFOB6I6w-8m4gbbk-12" value="10" style="whiteSpace=wrap;html=1;aspect=fixed;" vertex="1" parent="1">
          <mxGeometry x="320" y="520" width="40" height="40" as="geometry" />
        </mxCell>
        <mxCell id="BO4SJFOB6I6w-8m4gbbk-13" value="3" style="whiteSpace=wrap;html=1;aspect=fixed;" vertex="1" parent="1">
          <mxGeometry x="-1360" y="600" width="40" height="40" as="geometry" />
        </mxCell>
        <mxCell id="BO4SJFOB6I6w-8m4gbbk-14" value="" style="endArrow=classic;html=1;entryX=0;entryY=0.5;entryDx=0;entryDy=0;exitX=0.5;exitY=0;exitDx=0;exitDy=0;" edge="1" parent="1" source="BO4SJFOB6I6w-8m4gbbk-13" target="BO4SJFOB6I6w-8m4gbbk-12">
          <mxGeometry width="50" height="50" relative="1" as="geometry">
            <mxPoint x="160" y="500" as="sourcePoint" />
            <mxPoint x="210" y="450" as="targetPoint" />
            <Array as="points">
              <mxPoint x="-1340" y="540" />
            </Array>
          </mxGeometry>
        </mxCell>
        <mxCell id="BO4SJFOB6I6w-8m4gbbk-15" value="" style="endArrow=classic;html=1;entryX=0.5;entryY=1;entryDx=0;entryDy=0;exitX=0.5;exitY=0;exitDx=0;exitDy=0;" edge="1" parent="1" source="BO4SJFOB6I6w-8m4gbbk-12" target="BO4SJFOB6I6w-8m4gbbk-11">
          <mxGeometry width="50" height="50" relative="1" as="geometry">
            <mxPoint x="290" y="510" as="sourcePoint" />
            <mxPoint x="210" y="450" as="targetPoint" />
          </mxGeometry>
        </mxCell>
        <mxCell id="BO4SJFOB6I6w-8m4gbbk-16" value="" style="endArrow=classic;html=1;entryX=0;entryY=0.5;entryDx=0;entryDy=0;exitX=0.5;exitY=0;exitDx=0;exitDy=0;" edge="1" parent="1" source="BO4SJFOB6I6w-8m4gbbk-11" target="BO4SJFOB6I6w-8m4gbbk-10">
          <mxGeometry width="50" height="50" relative="1" as="geometry">
            <mxPoint x="160" y="500" as="sourcePoint" />
            <mxPoint x="210" y="450" as="targetPoint" />
            <Array as="points">
              <mxPoint x="340" y="380" />
            </Array>
          </mxGeometry>
        </mxCell>
        <mxCell id="BO4SJFOB6I6w-8m4gbbk-17" value="" style="endArrow=classic;html=1;entryX=0.5;entryY=1;entryDx=0;entryDy=0;exitX=0.5;exitY=0;exitDx=0;exitDy=0;" edge="1" parent="1" source="BO4SJFOB6I6w-8m4gbbk-10" target="BO4SJFOB6I6w-8m4gbbk-9">
          <mxGeometry width="50" height="50" relative="1" as="geometry">
            <mxPoint x="160" y="500" as="sourcePoint" />
            <mxPoint x="210" y="450" as="targetPoint" />
          </mxGeometry>
        </mxCell>
        <mxCell id="BO4SJFOB6I6w-8m4gbbk-18" value="" style="endArrow=classic;html=1;exitX=0.5;exitY=0;exitDx=0;exitDy=0;" edge="1" parent="1" source="BO4SJFOB6I6w-8m4gbbk-9">
          <mxGeometry width="50" height="50" relative="1" as="geometry">
            <mxPoint x="160" y="500" as="sourcePoint" />
            <mxPoint x="420" y="240" as="targetPoint" />
          </mxGeometry>
        </mxCell>
        <mxCell id="BO4SJFOB6I6w-8m4gbbk-19" value="6" style="whiteSpace=wrap;html=1;aspect=fixed;" vertex="1" parent="1">
          <mxGeometry x="-1360" y="680" width="40" height="40" as="geometry" />
        </mxCell>
        <mxCell id="BO4SJFOB6I6w-8m4gbbk-20" value="" style="endArrow=classic;html=1;entryX=0.5;entryY=1;entryDx=0;entryDy=0;entryPerimeter=0;exitX=0.5;exitY=0;exitDx=0;exitDy=0;" edge="1" parent="1" source="BO4SJFOB6I6w-8m4gbbk-19" target="BO4SJFOB6I6w-8m4gbbk-13">
          <mxGeometry width="50" height="50" relative="1" as="geometry">
            <mxPoint x="160" y="500" as="sourcePoint" />
            <mxPoint x="210" y="450" as="targetPoint" />
          </mxGeometry>
        </mxCell>
        <mxCell id="BO4SJFOB6I6w-8m4gbbk-21" value="20" style="whiteSpace=wrap;html=1;aspect=fixed;" vertex="1" parent="1">
          <mxGeometry x="320" y="600" width="40" height="40" as="geometry" />
        </mxCell>
        <mxCell id="BO4SJFOB6I6w-8m4gbbk-22" value="40" style="whiteSpace=wrap;html=1;aspect=fixed;" vertex="1" parent="1">
          <mxGeometry x="320" y="680" width="40" height="40" as="geometry" />
        </mxCell>
        <mxCell id="BO4SJFOB6I6w-8m4gbbk-23" value="13" style="whiteSpace=wrap;html=1;aspect=fixed;" vertex="1" parent="1">
          <mxGeometry x="-720" y="760" width="40" height="40" as="geometry" />
        </mxCell>
        <mxCell id="BO4SJFOB6I6w-8m4gbbk-24" value="26" style="whiteSpace=wrap;html=1;aspect=fixed;" vertex="1" parent="1">
          <mxGeometry x="-720" y="840" width="40" height="40" as="geometry" />
        </mxCell>
        <mxCell id="BO4SJFOB6I6w-8m4gbbk-25" value="52" style="whiteSpace=wrap;html=1;aspect=fixed;" vertex="1" parent="1">
          <mxGeometry x="-720" y="920" width="40" height="40" as="geometry" />
        </mxCell>
        <mxCell id="BO4SJFOB6I6w-8m4gbbk-26" value="17" style="whiteSpace=wrap;html=1;aspect=fixed;" vertex="1" parent="1">
          <mxGeometry x="-800" y="1000" width="40" height="40" as="geometry" />
        </mxCell>
        <mxCell id="BO4SJFOB6I6w-8m4gbbk-27" value="34" style="whiteSpace=wrap;html=1;aspect=fixed;" vertex="1" parent="1">
          <mxGeometry x="-800" y="1080" width="40" height="40" as="geometry" />
        </mxCell>
        <mxCell id="BO4SJFOB6I6w-8m4gbbk-28" value="11" style="whiteSpace=wrap;html=1;aspect=fixed;" vertex="1" parent="1">
          <mxGeometry x="-880" y="1160" width="40" height="40" as="geometry" />
        </mxCell>
        <mxCell id="BO4SJFOB6I6w-8m4gbbk-29" value="22" style="whiteSpace=wrap;html=1;aspect=fixed;" vertex="1" parent="1">
          <mxGeometry x="-880" y="1240" width="40" height="40" as="geometry" />
        </mxCell>
        <mxCell id="BO4SJFOB6I6w-8m4gbbk-30" value="7" style="whiteSpace=wrap;html=1;aspect=fixed;" vertex="1" parent="1">
          <mxGeometry x="-1200" y="1320" width="40" height="40" as="geometry" />
        </mxCell>
        <mxCell id="BO4SJFOB6I6w-8m4gbbk-31" value="" style="endArrow=classic;html=1;entryX=0;entryY=0.5;entryDx=0;entryDy=0;exitX=0.5;exitY=0;exitDx=0;exitDy=0;" edge="1" parent="1" source="BO4SJFOB6I6w-8m4gbbk-30" target="BO4SJFOB6I6w-8m4gbbk-29">
          <mxGeometry width="50" height="50" relative="1" as="geometry">
            <mxPoint x="10" y="1300" as="sourcePoint" />
            <mxPoint x="60" y="1250" as="targetPoint" />
            <Array as="points">
              <mxPoint x="-1180" y="1260" />
            </Array>
          </mxGeometry>
        </mxCell>
        <mxCell id="BO4SJFOB6I6w-8m4gbbk-32" value="" style="endArrow=classic;html=1;exitX=0.5;exitY=0;exitDx=0;exitDy=0;entryX=0.5;entryY=1;entryDx=0;entryDy=0;" edge="1" parent="1" source="BO4SJFOB6I6w-8m4gbbk-29" target="BO4SJFOB6I6w-8m4gbbk-28">
          <mxGeometry width="50" height="50" relative="1" as="geometry">
            <mxPoint x="110" y="1205" as="sourcePoint" />
            <mxPoint x="160" y="1155" as="targetPoint" />
          </mxGeometry>
        </mxCell>
        <mxCell id="BO4SJFOB6I6w-8m4gbbk-33" value="" style="endArrow=classic;html=1;exitX=0.5;exitY=0;exitDx=0;exitDy=0;entryX=0;entryY=0.5;entryDx=0;entryDy=0;" edge="1" parent="1" source="BO4SJFOB6I6w-8m4gbbk-28" target="BO4SJFOB6I6w-8m4gbbk-27">
          <mxGeometry width="50" height="50" relative="1" as="geometry">
            <mxPoint x="160" y="1100" as="sourcePoint" />
            <mxPoint x="210" y="1050" as="targetPoint" />
            <Array as="points">
              <mxPoint x="-860" y="1100" />
            </Array>
          </mxGeometry>
        </mxCell>
        <mxCell id="BO4SJFOB6I6w-8m4gbbk-34" value="" style="endArrow=classic;html=1;exitX=0.5;exitY=0;exitDx=0;exitDy=0;entryX=0.5;entryY=1;entryDx=0;entryDy=0;" edge="1" parent="1" source="BO4SJFOB6I6w-8m4gbbk-27" target="BO4SJFOB6I6w-8m4gbbk-26">
          <mxGeometry width="50" height="50" relative="1" as="geometry">
            <mxPoint x="160" y="1000" as="sourcePoint" />
            <mxPoint x="210" y="950" as="targetPoint" />
          </mxGeometry>
        </mxCell>
        <mxCell id="BO4SJFOB6I6w-8m4gbbk-35" value="" style="endArrow=classic;html=1;exitX=0.5;exitY=0;exitDx=0;exitDy=0;entryX=0;entryY=0.5;entryDx=0;entryDy=0;" edge="1" parent="1" source="BO4SJFOB6I6w-8m4gbbk-26" target="BO4SJFOB6I6w-8m4gbbk-25">
          <mxGeometry width="50" height="50" relative="1" as="geometry">
            <mxPoint x="160" y="1000" as="sourcePoint" />
            <mxPoint x="210" y="950" as="targetPoint" />
            <Array as="points">
              <mxPoint x="-780" y="940" />
            </Array>
          </mxGeometry>
        </mxCell>
        <mxCell id="BO4SJFOB6I6w-8m4gbbk-36" value="" style="endArrow=classic;html=1;exitX=0.5;exitY=0;exitDx=0;exitDy=0;entryX=0.5;entryY=1;entryDx=0;entryDy=0;" edge="1" parent="1" source="BO4SJFOB6I6w-8m4gbbk-25" target="BO4SJFOB6I6w-8m4gbbk-24">
          <mxGeometry width="50" height="50" relative="1" as="geometry">
            <mxPoint x="160" y="900" as="sourcePoint" />
            <mxPoint x="210" y="850" as="targetPoint" />
          </mxGeometry>
        </mxCell>
        <mxCell id="BO4SJFOB6I6w-8m4gbbk-37" value="" style="endArrow=classic;html=1;entryX=0.5;entryY=1;entryDx=0;entryDy=0;exitX=0.5;exitY=0;exitDx=0;exitDy=0;" edge="1" parent="1" source="BO4SJFOB6I6w-8m4gbbk-24" target="BO4SJFOB6I6w-8m4gbbk-23">
          <mxGeometry width="50" height="50" relative="1" as="geometry">
            <mxPoint x="160" y="900" as="sourcePoint" />
            <mxPoint x="210" y="850" as="targetPoint" />
          </mxGeometry>
        </mxCell>
        <mxCell id="BO4SJFOB6I6w-8m4gbbk-38" value="" style="endArrow=classic;html=1;entryX=0;entryY=0.5;entryDx=0;entryDy=0;exitX=0.5;exitY=0;exitDx=0;exitDy=0;" edge="1" parent="1" source="BO4SJFOB6I6w-8m4gbbk-23" target="BO4SJFOB6I6w-8m4gbbk-22">
          <mxGeometry width="50" height="50" relative="1" as="geometry">
            <mxPoint x="160" y="900" as="sourcePoint" />
            <mxPoint x="210" y="850" as="targetPoint" />
            <Array as="points">
              <mxPoint x="-700" y="700" />
            </Array>
          </mxGeometry>
        </mxCell>
        <mxCell id="BO4SJFOB6I6w-8m4gbbk-40" value="14" style="whiteSpace=wrap;html=1;aspect=fixed;" vertex="1" parent="1">
          <mxGeometry x="-1200" y="1400" width="40" height="40" as="geometry" />
        </mxCell>
        <mxCell id="BO4SJFOB6I6w-8m4gbbk-41" value="28" style="whiteSpace=wrap;html=1;aspect=fixed;" vertex="1" parent="1">
          <mxGeometry x="-1200" y="1480" width="40" height="40" as="geometry" />
        </mxCell>
        <mxCell id="BO4SJFOB6I6w-8m4gbbk-42" value="9" style="whiteSpace=wrap;html=1;aspect=fixed;" vertex="1" parent="1">
          <mxGeometry x="-1281" y="1560" width="40" height="40" as="geometry" />
        </mxCell>
        <mxCell id="BO4SJFOB6I6w-8m4gbbk-43" value="" style="endArrow=classic;html=1;exitX=0.5;exitY=0;exitDx=0;exitDy=0;entryX=0;entryY=0.5;entryDx=0;entryDy=0;" edge="1" parent="1" source="BO4SJFOB6I6w-8m4gbbk-42" target="BO4SJFOB6I6w-8m4gbbk-41">
          <mxGeometry width="50" height="50" relative="1" as="geometry">
            <mxPoint x="160" y="1500" as="sourcePoint" />
            <mxPoint x="-830" y="1500" as="targetPoint" />
            <Array as="points">
              <mxPoint x="-1260" y="1500" />
            </Array>
          </mxGeometry>
        </mxCell>
        <mxCell id="BO4SJFOB6I6w-8m4gbbk-44" value="" style="endArrow=classic;html=1;exitX=0.5;exitY=0;exitDx=0;exitDy=0;entryX=0.5;entryY=1;entryDx=0;entryDy=0;" edge="1" parent="1" source="BO4SJFOB6I6w-8m4gbbk-41" target="BO4SJFOB6I6w-8m4gbbk-40">
          <mxGeometry width="50" height="50" relative="1" as="geometry">
            <mxPoint x="160" y="1500" as="sourcePoint" />
            <mxPoint x="210" y="1450" as="targetPoint" />
          </mxGeometry>
        </mxCell>
        <mxCell id="BO4SJFOB6I6w-8m4gbbk-45" value="" style="endArrow=classic;html=1;entryX=0.5;entryY=1;entryDx=0;entryDy=0;exitX=0.5;exitY=0;exitDx=0;exitDy=0;" edge="1" parent="1" source="BO4SJFOB6I6w-8m4gbbk-40" target="BO4SJFOB6I6w-8m4gbbk-30">
          <mxGeometry width="50" height="50" relative="1" as="geometry">
            <mxPoint x="20" y="1400" as="sourcePoint" />
            <mxPoint x="210" y="1450" as="targetPoint" />
          </mxGeometry>
        </mxCell>
        <mxCell id="BO4SJFOB6I6w-8m4gbbk-46" value="12" style="whiteSpace=wrap;html=1;aspect=fixed;" vertex="1" parent="1">
          <mxGeometry x="-1360" y="760" width="40" height="40" as="geometry" />
        </mxCell>
        <mxCell id="BO4SJFOB6I6w-8m4gbbk-47" value="" style="endArrow=classic;html=1;entryX=0.5;entryY=1;entryDx=0;entryDy=0;exitX=0.5;exitY=0;exitDx=0;exitDy=0;" edge="1" parent="1" source="BO4SJFOB6I6w-8m4gbbk-22" target="BO4SJFOB6I6w-8m4gbbk-21">
          <mxGeometry width="50" height="50" relative="1" as="geometry">
            <mxPoint x="160" y="800" as="sourcePoint" />
            <mxPoint x="210" y="750" as="targetPoint" />
          </mxGeometry>
        </mxCell>
        <mxCell id="BO4SJFOB6I6w-8m4gbbk-48" value="" style="endArrow=classic;html=1;entryX=0.5;entryY=1;entryDx=0;entryDy=0;exitX=0.5;exitY=0;exitDx=0;exitDy=0;" edge="1" parent="1" source="BO4SJFOB6I6w-8m4gbbk-21" target="BO4SJFOB6I6w-8m4gbbk-12">
          <mxGeometry width="50" height="50" relative="1" as="geometry">
            <mxPoint x="160" y="800" as="sourcePoint" />
            <mxPoint x="210" y="750" as="targetPoint" />
          </mxGeometry>
        </mxCell>
        <mxCell id="BO4SJFOB6I6w-8m4gbbk-49" value="80" style="whiteSpace=wrap;html=1;aspect=fixed;" vertex="1" parent="1">
          <mxGeometry x="320" y="760" width="40" height="40" as="geometry" />
        </mxCell>
        <mxCell id="BO4SJFOB6I6w-8m4gbbk-50" value="160" style="whiteSpace=wrap;html=1;aspect=fixed;" vertex="1" parent="1">
          <mxGeometry x="320" y="840" width="40" height="40" as="geometry" />
        </mxCell>
        <mxCell id="BO4SJFOB6I6w-8m4gbbk-51" value="" style="endArrow=classic;html=1;exitX=0.5;exitY=0;exitDx=0;exitDy=0;entryX=0.5;entryY=1;entryDx=0;entryDy=0;" edge="1" parent="1" source="BO4SJFOB6I6w-8m4gbbk-46" target="BO4SJFOB6I6w-8m4gbbk-19">
          <mxGeometry width="50" height="50" relative="1" as="geometry">
            <mxPoint x="160" y="700" as="sourcePoint" />
            <mxPoint x="210" y="650" as="targetPoint" />
          </mxGeometry>
        </mxCell>
        <mxCell id="BO4SJFOB6I6w-8m4gbbk-52" value="53&lt;br&gt;" style="whiteSpace=wrap;html=1;aspect=fixed;" vertex="1" parent="1">
          <mxGeometry x="240" y="920" width="40" height="40" as="geometry" />
        </mxCell>
        <mxCell id="BO4SJFOB6I6w-8m4gbbk-54" value="106" style="whiteSpace=wrap;html=1;aspect=fixed;" vertex="1" parent="1">
          <mxGeometry x="240" y="1000" width="40" height="40" as="geometry" />
        </mxCell>
        <mxCell id="BO4SJFOB6I6w-8m4gbbk-55" value="35" style="whiteSpace=wrap;html=1;aspect=fixed;" vertex="1" parent="1">
          <mxGeometry x="160" y="1080" width="40" height="40" as="geometry" />
        </mxCell>
        <mxCell id="BO4SJFOB6I6w-8m4gbbk-56" value="70" style="whiteSpace=wrap;html=1;aspect=fixed;" vertex="1" parent="1">
          <mxGeometry x="160" y="1160" width="40" height="40" as="geometry" />
        </mxCell>
        <mxCell id="BO4SJFOB6I6w-8m4gbbk-57" value="23" style="whiteSpace=wrap;html=1;aspect=fixed;" vertex="1" parent="1">
          <mxGeometry x="80" y="1240" width="40" height="40" as="geometry" />
        </mxCell>
        <mxCell id="BO4SJFOB6I6w-8m4gbbk-58" value="46" style="whiteSpace=wrap;html=1;aspect=fixed;" vertex="1" parent="1">
          <mxGeometry x="80" y="1320" width="40" height="40" as="geometry" />
        </mxCell>
        <mxCell id="BO4SJFOB6I6w-8m4gbbk-59" value="15" style="whiteSpace=wrap;html=1;aspect=fixed;" vertex="1" parent="1">
          <mxGeometry x="-640" y="1400" width="40" height="40" as="geometry" />
        </mxCell>
        <mxCell id="BO4SJFOB6I6w-8m4gbbk-60" value="" style="endArrow=classic;html=1;exitX=0.5;exitY=0;exitDx=0;exitDy=0;entryX=0;entryY=0.5;entryDx=0;entryDy=0;" edge="1" parent="1" source="BO4SJFOB6I6w-8m4gbbk-59" target="BO4SJFOB6I6w-8m4gbbk-58">
          <mxGeometry width="50" height="50" relative="1" as="geometry">
            <mxPoint x="-40" y="1090" as="sourcePoint" />
            <mxPoint x="10" y="1040" as="targetPoint" />
            <Array as="points">
              <mxPoint x="-620" y="1340" />
            </Array>
          </mxGeometry>
        </mxCell>
        <mxCell id="BO4SJFOB6I6w-8m4gbbk-61" value="" style="endArrow=classic;html=1;exitX=0.5;exitY=0;exitDx=0;exitDy=0;entryX=0.5;entryY=1;entryDx=0;entryDy=0;" edge="1" parent="1" source="BO4SJFOB6I6w-8m4gbbk-58" target="BO4SJFOB6I6w-8m4gbbk-57">
          <mxGeometry width="50" height="50" relative="1" as="geometry">
            <mxPoint x="-40" y="1100" as="sourcePoint" />
            <mxPoint x="10" y="1050" as="targetPoint" />
          </mxGeometry>
        </mxCell>
        <mxCell id="BO4SJFOB6I6w-8m4gbbk-62" value="" style="endArrow=classic;html=1;exitX=0.5;exitY=0;exitDx=0;exitDy=0;entryX=0;entryY=0.5;entryDx=0;entryDy=0;" edge="1" parent="1" source="BO4SJFOB6I6w-8m4gbbk-57" target="BO4SJFOB6I6w-8m4gbbk-56">
          <mxGeometry width="50" height="50" relative="1" as="geometry">
            <mxPoint x="-40" y="1100" as="sourcePoint" />
            <mxPoint x="10" y="1050" as="targetPoint" />
            <Array as="points">
              <mxPoint x="100" y="1180" />
            </Array>
          </mxGeometry>
        </mxCell>
        <mxCell id="BO4SJFOB6I6w-8m4gbbk-63" value="" style="endArrow=classic;html=1;entryX=0.5;entryY=1;entryDx=0;entryDy=0;exitX=0.5;exitY=0;exitDx=0;exitDy=0;" edge="1" parent="1" source="BO4SJFOB6I6w-8m4gbbk-56" target="BO4SJFOB6I6w-8m4gbbk-55">
          <mxGeometry width="50" height="50" relative="1" as="geometry">
            <mxPoint x="-40" y="1100" as="sourcePoint" />
            <mxPoint x="10" y="1050" as="targetPoint" />
          </mxGeometry>
        </mxCell>
        <mxCell id="BO4SJFOB6I6w-8m4gbbk-64" value="" style="endArrow=classic;html=1;exitX=0.5;exitY=0;exitDx=0;exitDy=0;entryX=0;entryY=0.5;entryDx=0;entryDy=0;" edge="1" parent="1" source="BO4SJFOB6I6w-8m4gbbk-55" target="BO4SJFOB6I6w-8m4gbbk-54">
          <mxGeometry width="50" height="50" relative="1" as="geometry">
            <mxPoint x="-40" y="1100" as="sourcePoint" />
            <mxPoint x="200" y="1010" as="targetPoint" />
            <Array as="points">
              <mxPoint x="180" y="1020" />
            </Array>
          </mxGeometry>
        </mxCell>
        <mxCell id="BO4SJFOB6I6w-8m4gbbk-65" value="" style="endArrow=classic;html=1;entryX=0.5;entryY=1;entryDx=0;entryDy=0;exitX=0.5;exitY=0;exitDx=0;exitDy=0;" edge="1" parent="1" source="BO4SJFOB6I6w-8m4gbbk-54" target="BO4SJFOB6I6w-8m4gbbk-52">
          <mxGeometry width="50" height="50" relative="1" as="geometry">
            <mxPoint x="290" y="980" as="sourcePoint" />
            <mxPoint x="10" y="750" as="targetPoint" />
          </mxGeometry>
        </mxCell>
        <mxCell id="BO4SJFOB6I6w-8m4gbbk-66" value="" style="endArrow=classic;html=1;entryX=0;entryY=0.5;entryDx=0;entryDy=0;exitX=0.5;exitY=0;exitDx=0;exitDy=0;" edge="1" parent="1" source="BO4SJFOB6I6w-8m4gbbk-52" target="BO4SJFOB6I6w-8m4gbbk-50">
          <mxGeometry width="50" height="50" relative="1" as="geometry">
            <mxPoint x="-40" y="800" as="sourcePoint" />
            <mxPoint x="10" y="750" as="targetPoint" />
            <Array as="points">
              <mxPoint x="260" y="860" />
            </Array>
          </mxGeometry>
        </mxCell>
        <mxCell id="BO4SJFOB6I6w-8m4gbbk-67" value="" style="endArrow=classic;html=1;entryX=0.5;entryY=1;entryDx=0;entryDy=0;exitX=0.5;exitY=0;exitDx=0;exitDy=0;" edge="1" parent="1" source="BO4SJFOB6I6w-8m4gbbk-50" target="BO4SJFOB6I6w-8m4gbbk-49">
          <mxGeometry width="50" height="50" relative="1" as="geometry">
            <mxPoint x="-40" y="800" as="sourcePoint" />
            <mxPoint x="10" y="750" as="targetPoint" />
          </mxGeometry>
        </mxCell>
        <mxCell id="BO4SJFOB6I6w-8m4gbbk-68" value="" style="endArrow=classic;html=1;entryX=0.5;entryY=1;entryDx=0;entryDy=0;exitX=0.5;exitY=0;exitDx=0;exitDy=0;" edge="1" parent="1" source="BO4SJFOB6I6w-8m4gbbk-49" target="BO4SJFOB6I6w-8m4gbbk-22">
          <mxGeometry width="50" height="50" relative="1" as="geometry">
            <mxPoint x="-40" y="800" as="sourcePoint" />
            <mxPoint x="10" y="750" as="targetPoint" />
          </mxGeometry>
        </mxCell>
        <mxCell id="BO4SJFOB6I6w-8m4gbbk-69" value="18" style="whiteSpace=wrap;html=1;aspect=fixed;" vertex="1" parent="1">
          <mxGeometry x="-1281" y="1640" width="40" height="40" as="geometry" />
        </mxCell>
        <mxCell id="BO4SJFOB6I6w-8m4gbbk-70" value="" style="endArrow=classic;html=1;exitX=0.5;exitY=0;exitDx=0;exitDy=0;entryX=0.5;entryY=1;entryDx=0;entryDy=0;" edge="1" parent="1" source="BO4SJFOB6I6w-8m4gbbk-69" target="BO4SJFOB6I6w-8m4gbbk-42">
          <mxGeometry width="50" height="50" relative="1" as="geometry">
            <mxPoint x="-40" y="1400" as="sourcePoint" />
            <mxPoint x="10" y="1350" as="targetPoint" />
          </mxGeometry>
        </mxCell>
        <mxCell id="BO4SJFOB6I6w-8m4gbbk-71" value="44" style="whiteSpace=wrap;html=1;aspect=fixed;" vertex="1" parent="1">
          <mxGeometry x="-880" y="1320" width="40" height="40" as="geometry" />
        </mxCell>
        <mxCell id="BO4SJFOB6I6w-8m4gbbk-72" value="88" style="whiteSpace=wrap;html=1;aspect=fixed;" vertex="1" parent="1">
          <mxGeometry x="-880" y="1400" width="40" height="40" as="geometry" />
        </mxCell>
        <mxCell id="BO4SJFOB6I6w-8m4gbbk-73" value="29" style="whiteSpace=wrap;html=1;aspect=fixed;" vertex="1" parent="1">
          <mxGeometry x="-960" y="1480" width="40" height="40" as="geometry" />
        </mxCell>
        <mxCell id="BO4SJFOB6I6w-8m4gbbk-74" value="58" style="whiteSpace=wrap;html=1;aspect=fixed;" vertex="1" parent="1">
          <mxGeometry x="-960" y="1560" width="40" height="40" as="geometry" />
        </mxCell>
        <mxCell id="BO4SJFOB6I6w-8m4gbbk-76" value="19" style="whiteSpace=wrap;html=1;aspect=fixed;" vertex="1" parent="1">
          <mxGeometry x="-1040" y="1640" width="40" height="40" as="geometry" />
        </mxCell>
        <mxCell id="BO4SJFOB6I6w-8m4gbbk-77" value="" style="endArrow=classic;html=1;exitX=0.5;exitY=0;exitDx=0;exitDy=0;entryX=0;entryY=0.5;entryDx=0;entryDy=0;" edge="1" parent="1" source="BO4SJFOB6I6w-8m4gbbk-76" target="BO4SJFOB6I6w-8m4gbbk-74">
          <mxGeometry width="50" height="50" relative="1" as="geometry">
            <mxPoint x="-340" y="1500" as="sourcePoint" />
            <mxPoint x="-290" y="1450" as="targetPoint" />
            <Array as="points">
              <mxPoint x="-1020" y="1580" />
            </Array>
          </mxGeometry>
        </mxCell>
        <mxCell id="BO4SJFOB6I6w-8m4gbbk-78" value="" style="endArrow=classic;html=1;exitX=0.5;exitY=0;exitDx=0;exitDy=0;entryX=0.5;entryY=1;entryDx=0;entryDy=0;" edge="1" parent="1" source="BO4SJFOB6I6w-8m4gbbk-74" target="BO4SJFOB6I6w-8m4gbbk-73">
          <mxGeometry width="50" height="50" relative="1" as="geometry">
            <mxPoint x="-340" y="1400" as="sourcePoint" />
            <mxPoint x="-290" y="1350" as="targetPoint" />
          </mxGeometry>
        </mxCell>
        <mxCell id="BO4SJFOB6I6w-8m4gbbk-79" value="" style="endArrow=classic;html=1;exitX=0.5;exitY=0;exitDx=0;exitDy=0;entryX=0;entryY=0.5;entryDx=0;entryDy=0;" edge="1" parent="1" source="BO4SJFOB6I6w-8m4gbbk-73" target="BO4SJFOB6I6w-8m4gbbk-72">
          <mxGeometry width="50" height="50" relative="1" as="geometry">
            <mxPoint x="-340" y="1400" as="sourcePoint" />
            <mxPoint x="-290" y="1350" as="targetPoint" />
            <Array as="points">
              <mxPoint x="-940" y="1420" />
            </Array>
          </mxGeometry>
        </mxCell>
        <mxCell id="BO4SJFOB6I6w-8m4gbbk-80" value="" style="endArrow=classic;html=1;entryX=0.5;entryY=1;entryDx=0;entryDy=0;exitX=0.5;exitY=0;exitDx=0;exitDy=0;" edge="1" parent="1" source="BO4SJFOB6I6w-8m4gbbk-72" target="BO4SJFOB6I6w-8m4gbbk-71">
          <mxGeometry width="50" height="50" relative="1" as="geometry">
            <mxPoint x="-340" y="1400" as="sourcePoint" />
            <mxPoint x="-290" y="1350" as="targetPoint" />
          </mxGeometry>
        </mxCell>
        <mxCell id="BO4SJFOB6I6w-8m4gbbk-81" value="" style="endArrow=classic;html=1;entryX=0.5;entryY=1;entryDx=0;entryDy=0;exitX=0.5;exitY=0;exitDx=0;exitDy=0;" edge="1" parent="1" source="BO4SJFOB6I6w-8m4gbbk-71" target="BO4SJFOB6I6w-8m4gbbk-29">
          <mxGeometry width="50" height="50" relative="1" as="geometry">
            <mxPoint x="-340" y="1400" as="sourcePoint" />
            <mxPoint x="-290" y="1350" as="targetPoint" />
          </mxGeometry>
        </mxCell>
        <mxCell id="BO4SJFOB6I6w-8m4gbbk-82" value="32" style="whiteSpace=wrap;html=1;aspect=fixed;" vertex="1" parent="1">
          <mxGeometry x="400" y="440" width="40" height="40" as="geometry" />
        </mxCell>
        <mxCell id="BO4SJFOB6I6w-8m4gbbk-83" value="64" style="whiteSpace=wrap;html=1;aspect=fixed;" vertex="1" parent="1">
          <mxGeometry x="400" y="520" width="40" height="40" as="geometry" />
        </mxCell>
        <mxCell id="BO4SJFOB6I6w-8m4gbbk-84" value="21" style="whiteSpace=wrap;html=1;aspect=fixed;" vertex="1" parent="1">
          <mxGeometry x="480" y="600" width="40" height="40" as="geometry" />
        </mxCell>
        <mxCell id="BO4SJFOB6I6w-8m4gbbk-85" value="" style="endArrow=classic;html=1;entryX=1;entryY=0.5;entryDx=0;entryDy=0;exitX=0.5;exitY=0;exitDx=0;exitDy=0;" edge="1" parent="1" source="BO4SJFOB6I6w-8m4gbbk-84" target="BO4SJFOB6I6w-8m4gbbk-83">
          <mxGeometry width="50" height="50" relative="1" as="geometry">
            <mxPoint x="160" y="600" as="sourcePoint" />
            <mxPoint x="210" y="550" as="targetPoint" />
            <Array as="points">
              <mxPoint x="500" y="540" />
            </Array>
          </mxGeometry>
        </mxCell>
        <mxCell id="BO4SJFOB6I6w-8m4gbbk-86" value="" style="endArrow=classic;html=1;entryX=0.5;entryY=1;entryDx=0;entryDy=0;exitX=0.5;exitY=0;exitDx=0;exitDy=0;" edge="1" parent="1" source="BO4SJFOB6I6w-8m4gbbk-83" target="BO4SJFOB6I6w-8m4gbbk-82">
          <mxGeometry width="50" height="50" relative="1" as="geometry">
            <mxPoint x="160" y="600" as="sourcePoint" />
            <mxPoint x="210" y="550" as="targetPoint" />
          </mxGeometry>
        </mxCell>
        <mxCell id="BO4SJFOB6I6w-8m4gbbk-87" value="" style="endArrow=classic;html=1;entryX=0.5;entryY=1;entryDx=0;entryDy=0;exitX=0.5;exitY=0;exitDx=0;exitDy=0;" edge="1" parent="1" source="BO4SJFOB6I6w-8m4gbbk-82" target="BO4SJFOB6I6w-8m4gbbk-10">
          <mxGeometry width="50" height="50" relative="1" as="geometry">
            <mxPoint x="160" y="600" as="sourcePoint" />
            <mxPoint x="210" y="550" as="targetPoint" />
          </mxGeometry>
        </mxCell>
        <mxCell id="BO4SJFOB6I6w-8m4gbbk-88" value="24" style="whiteSpace=wrap;html=1;aspect=fixed;" vertex="1" parent="1">
          <mxGeometry x="-1360" y="840" width="40" height="40" as="geometry" />
        </mxCell>
        <mxCell id="BO4SJFOB6I6w-8m4gbbk-89" value="" style="endArrow=classic;html=1;exitX=0.5;exitY=0;exitDx=0;exitDy=0;entryX=0.5;entryY=1;entryDx=0;entryDy=0;" edge="1" parent="1" source="BO4SJFOB6I6w-8m4gbbk-88" target="BO4SJFOB6I6w-8m4gbbk-46">
          <mxGeometry width="50" height="50" relative="1" as="geometry">
            <mxPoint x="-340" y="800" as="sourcePoint" />
            <mxPoint x="-290" y="750" as="targetPoint" />
          </mxGeometry>
        </mxCell>
        <mxCell id="BO4SJFOB6I6w-8m4gbbk-91" value="38" style="whiteSpace=wrap;html=1;aspect=fixed;" vertex="1" parent="1">
          <mxGeometry x="-1040" y="1720" width="40" height="40" as="geometry" />
        </mxCell>
        <mxCell id="BO4SJFOB6I6w-8m4gbbk-92" value="76" style="whiteSpace=wrap;html=1;aspect=fixed;" vertex="1" parent="1">
          <mxGeometry x="-1040" y="1800" width="40" height="40" as="geometry" />
        </mxCell>
        <mxCell id="BO4SJFOB6I6w-8m4gbbk-93" value="25" style="whiteSpace=wrap;html=1;aspect=fixed;" vertex="1" parent="1">
          <mxGeometry x="-1120" y="1880" width="40" height="40" as="geometry" />
        </mxCell>
        <mxCell id="BO4SJFOB6I6w-8m4gbbk-94" value="" style="endArrow=classic;html=1;exitX=0.5;exitY=0;exitDx=0;exitDy=0;entryX=0;entryY=0.5;entryDx=0;entryDy=0;" edge="1" parent="1" source="BO4SJFOB6I6w-8m4gbbk-93" target="BO4SJFOB6I6w-8m4gbbk-92">
          <mxGeometry width="50" height="50" relative="1" as="geometry">
            <mxPoint x="-340" y="1700" as="sourcePoint" />
            <mxPoint x="-290" y="1650" as="targetPoint" />
            <Array as="points">
              <mxPoint x="-1100" y="1820" />
            </Array>
          </mxGeometry>
        </mxCell>
        <mxCell id="BO4SJFOB6I6w-8m4gbbk-95" value="" style="endArrow=classic;html=1;exitX=0.5;exitY=0;exitDx=0;exitDy=0;entryX=0.5;entryY=1;entryDx=0;entryDy=0;" edge="1" parent="1" source="BO4SJFOB6I6w-8m4gbbk-92" target="BO4SJFOB6I6w-8m4gbbk-91">
          <mxGeometry width="50" height="50" relative="1" as="geometry">
            <mxPoint x="-340" y="1700" as="sourcePoint" />
            <mxPoint x="-290" y="1650" as="targetPoint" />
          </mxGeometry>
        </mxCell>
        <mxCell id="BO4SJFOB6I6w-8m4gbbk-96" value="" style="endArrow=classic;html=1;exitX=0.5;exitY=0;exitDx=0;exitDy=0;entryX=0.5;entryY=1;entryDx=0;entryDy=0;" edge="1" parent="1" source="BO4SJFOB6I6w-8m4gbbk-91" target="BO4SJFOB6I6w-8m4gbbk-76">
          <mxGeometry width="50" height="50" relative="1" as="geometry">
            <mxPoint x="-340" y="1700" as="sourcePoint" />
            <mxPoint x="-290" y="1650" as="targetPoint" />
          </mxGeometry>
        </mxCell>
        <mxCell id="BO4SJFOB6I6w-8m4gbbk-97" value="92" style="whiteSpace=wrap;html=1;aspect=fixed;" vertex="1" parent="1">
          <mxGeometry x="80" y="1400" width="40" height="40" as="geometry" />
        </mxCell>
        <mxCell id="BO4SJFOB6I6w-8m4gbbk-98" value="184" style="whiteSpace=wrap;html=1;aspect=fixed;" vertex="1" parent="1">
          <mxGeometry x="80" y="1480" width="40" height="40" as="geometry" />
        </mxCell>
        <mxCell id="BO4SJFOB6I6w-8m4gbbk-100" value="61" style="whiteSpace=wrap;html=1;aspect=fixed;" vertex="1" parent="1">
          <mxGeometry y="1560" width="40" height="40" as="geometry" />
        </mxCell>
        <mxCell id="BO4SJFOB6I6w-8m4gbbk-101" value="122" style="whiteSpace=wrap;html=1;aspect=fixed;" vertex="1" parent="1">
          <mxGeometry y="1640" width="40" height="40" as="geometry" />
        </mxCell>
        <mxCell id="BO4SJFOB6I6w-8m4gbbk-102" value="244" style="whiteSpace=wrap;html=1;aspect=fixed;" vertex="1" parent="1">
          <mxGeometry y="1720" width="40" height="40" as="geometry" />
        </mxCell>
        <mxCell id="BO4SJFOB6I6w-8m4gbbk-103" value="488" style="whiteSpace=wrap;html=1;aspect=fixed;" vertex="1" parent="1">
          <mxGeometry y="1800" width="40" height="40" as="geometry" />
        </mxCell>
        <mxCell id="BO4SJFOB6I6w-8m4gbbk-105" value="976" style="whiteSpace=wrap;html=1;aspect=fixed;" vertex="1" parent="1">
          <mxGeometry y="1880" width="40" height="40" as="geometry" />
        </mxCell>
        <mxCell id="BO4SJFOB6I6w-8m4gbbk-106" value="325" style="whiteSpace=wrap;html=1;aspect=fixed;" vertex="1" parent="1">
          <mxGeometry x="-80" y="1960" width="40" height="40" as="geometry" />
        </mxCell>
        <mxCell id="BO4SJFOB6I6w-8m4gbbk-107" value="650" style="whiteSpace=wrap;html=1;aspect=fixed;" vertex="1" parent="1">
          <mxGeometry x="-80" y="2040" width="40" height="40" as="geometry" />
        </mxCell>
        <mxCell id="BO4SJFOB6I6w-8m4gbbk-108" value="1300" style="whiteSpace=wrap;html=1;aspect=fixed;" vertex="1" parent="1">
          <mxGeometry x="-80" y="2120" width="40" height="40" as="geometry" />
        </mxCell>
        <mxCell id="BO4SJFOB6I6w-8m4gbbk-109" value="433" style="whiteSpace=wrap;html=1;aspect=fixed;" vertex="1" parent="1">
          <mxGeometry x="-160" y="2160" width="40" height="40" as="geometry" />
        </mxCell>
        <mxCell id="BO4SJFOB6I6w-8m4gbbk-110" value="866" style="whiteSpace=wrap;html=1;aspect=fixed;" vertex="1" parent="1">
          <mxGeometry x="-160" y="2240" width="40" height="40" as="geometry" />
        </mxCell>
        <mxCell id="BO4SJFOB6I6w-8m4gbbk-112" value="1732" style="whiteSpace=wrap;html=1;aspect=fixed;" vertex="1" parent="1">
          <mxGeometry x="-160" y="2320" width="40" height="40" as="geometry" />
        </mxCell>
        <mxCell id="BO4SJFOB6I6w-8m4gbbk-113" value="577" style="whiteSpace=wrap;html=1;aspect=fixed;" vertex="1" parent="1">
          <mxGeometry x="-240" y="2400" width="40" height="40" as="geometry" />
        </mxCell>
        <mxCell id="BO4SJFOB6I6w-8m4gbbk-114" value="1154" style="whiteSpace=wrap;html=1;aspect=fixed;" vertex="1" parent="1">
          <mxGeometry x="-240" y="2480" width="40" height="40" as="geometry" />
        </mxCell>
        <mxCell id="BO4SJFOB6I6w-8m4gbbk-116" value="2308" style="whiteSpace=wrap;html=1;aspect=fixed;" vertex="1" parent="1">
          <mxGeometry x="-240" y="2560" width="40" height="40" as="geometry" />
        </mxCell>
        <mxCell id="BO4SJFOB6I6w-8m4gbbk-117" value="4616" style="whiteSpace=wrap;html=1;aspect=fixed;" vertex="1" parent="1">
          <mxGeometry x="-240" y="2640" width="40" height="40" as="geometry" />
        </mxCell>
        <mxCell id="BO4SJFOB6I6w-8m4gbbk-118" value="9232" style="whiteSpace=wrap;html=1;aspect=fixed;" vertex="1" parent="1">
          <mxGeometry x="-240" y="2720" width="40" height="40" as="geometry" />
        </mxCell>
        <mxCell id="BO4SJFOB6I6w-8m4gbbk-119" value="3077" style="whiteSpace=wrap;html=1;aspect=fixed;" vertex="1" parent="1">
          <mxGeometry x="-320" y="2800" width="40" height="40" as="geometry" />
        </mxCell>
        <mxCell id="BO4SJFOB6I6w-8m4gbbk-120" value="6154" style="whiteSpace=wrap;html=1;aspect=fixed;" vertex="1" parent="1">
          <mxGeometry x="-320" y="2880" width="40" height="40" as="geometry" />
        </mxCell>
        <mxCell id="BO4SJFOB6I6w-8m4gbbk-121" value="2051" style="whiteSpace=wrap;html=1;aspect=fixed;" vertex="1" parent="1">
          <mxGeometry x="-400" y="2960" width="40" height="40" as="geometry" />
        </mxCell>
        <mxCell id="BO4SJFOB6I6w-8m4gbbk-122" value="4102" style="whiteSpace=wrap;html=1;aspect=fixed;" vertex="1" parent="1">
          <mxGeometry x="-400" y="3040" width="40" height="40" as="geometry" />
        </mxCell>
        <mxCell id="BO4SJFOB6I6w-8m4gbbk-123" value="1367" style="whiteSpace=wrap;html=1;aspect=fixed;" vertex="1" parent="1">
          <mxGeometry x="-480" y="3120" width="40" height="40" as="geometry" />
        </mxCell>
        <mxCell id="BO4SJFOB6I6w-8m4gbbk-124" value="2734" style="whiteSpace=wrap;html=1;aspect=fixed;" vertex="1" parent="1">
          <mxGeometry x="-480" y="3200" width="40" height="40" as="geometry" />
        </mxCell>
        <mxCell id="BO4SJFOB6I6w-8m4gbbk-125" value="911" style="whiteSpace=wrap;html=1;aspect=fixed;" vertex="1" parent="1">
          <mxGeometry x="-560" y="3280" width="40" height="40" as="geometry" />
        </mxCell>
        <mxCell id="BO4SJFOB6I6w-8m4gbbk-126" value="1822" style="whiteSpace=wrap;html=1;aspect=fixed;" vertex="1" parent="1">
          <mxGeometry x="-560" y="3360" width="40" height="40" as="geometry" />
        </mxCell>
        <mxCell id="BO4SJFOB6I6w-8m4gbbk-127" value="3644" style="whiteSpace=wrap;html=1;aspect=fixed;" vertex="1" parent="1">
          <mxGeometry x="-560" y="3440" width="40" height="40" as="geometry" />
        </mxCell>
        <mxCell id="BO4SJFOB6I6w-8m4gbbk-128" value="7288" style="whiteSpace=wrap;html=1;aspect=fixed;" vertex="1" parent="1">
          <mxGeometry x="-560" y="3520" width="40" height="40" as="geometry" />
        </mxCell>
        <mxCell id="BO4SJFOB6I6w-8m4gbbk-129" value="30" style="whiteSpace=wrap;html=1;aspect=fixed;" vertex="1" parent="1">
          <mxGeometry x="-640" y="1480" width="40" height="40" as="geometry" />
        </mxCell>
        <mxCell id="BO4SJFOB6I6w-8m4gbbk-130" value="" style="endArrow=classic;html=1;exitX=0.5;exitY=0;exitDx=0;exitDy=0;entryX=0.5;entryY=1;entryDx=0;entryDy=0;" edge="1" parent="1" source="BO4SJFOB6I6w-8m4gbbk-129" target="BO4SJFOB6I6w-8m4gbbk-59">
          <mxGeometry width="50" height="50" relative="1" as="geometry">
            <mxPoint x="-100" y="1450" as="sourcePoint" />
            <mxPoint x="-50" y="1400" as="targetPoint" />
          </mxGeometry>
        </mxCell>
      </root>
    </mxGraphModel>
  </diagram>
  <diagram id="rVshsOVmFmYu8rlmN_w4" name="Page-2">
    <mxGraphModel dx="1182" dy="732" grid="1" gridSize="10" guides="1" tooltips="1" connect="1" arrows="1" fold="1" page="1" pageScale="1" pageWidth="827" pageHeight="1169" math="0" shadow="0">
      <root>
        <mxCell id="3Ty3WpwLQ8PXJC7MorYz-0" />
        <mxCell id="3Ty3WpwLQ8PXJC7MorYz-1" parent="3Ty3WpwLQ8PXJC7MorYz-0" />
        <mxCell id="3Ty3WpwLQ8PXJC7MorYz-2" value="1" style="whiteSpace=wrap;html=1;aspect=fixed;" vertex="1" parent="3Ty3WpwLQ8PXJC7MorYz-1">
          <mxGeometry x="760" width="40" height="40" as="geometry" />
        </mxCell>
        <mxCell id="3Ty3WpwLQ8PXJC7MorYz-3" value="5" style="whiteSpace=wrap;html=1;aspect=fixed;" vertex="1" parent="3Ty3WpwLQ8PXJC7MorYz-1">
          <mxGeometry x="760" y="80" width="40" height="40" as="geometry" />
        </mxCell>
        <mxCell id="3Ty3WpwLQ8PXJC7MorYz-4" value="3" style="whiteSpace=wrap;html=1;aspect=fixed;" vertex="1" parent="3Ty3WpwLQ8PXJC7MorYz-1">
          <mxGeometry x="760" y="160" width="40" height="40" as="geometry" />
        </mxCell>
      </root>
    </mxGraphModel>
  </diagram>
</mxfile>
